<svg viewBox="0 0 90 90" fill="none" xmlns="http://www.w3.org/2000/svg">
<rect width="90" height="90" rx="25" fill="#6366F1"/>
<path d="M63.312 29.16C63.568 29.64 63.712 30.072 63.744 30.456C63.808 30.84 63.84 31.4 63.84 32.136V58.776C63.84 60.984 63.232 62.28 62.016 62.664C61.408 62.856 60.64 62.952 59.712 62.952C58.784 62.952 58.048 62.872 57.504 62.712C56.96 62.552 56.544 62.36 56.256 62.136C55.968 61.912 55.744 61.592 55.584 61.176C55.424 60.632 55.344 59.8 55.344 58.68V42.6C54.544 43.592 53.376 45.176 51.84 47.352C50.304 49.496 49.328 50.84 48.912 51.384C48.496 51.928 48.208 52.312 48.048 52.536C47.888 52.728 47.488 53.016 46.848 53.4C46.24 53.752 45.568 53.928 44.832 53.928C44.128 53.928 43.472 53.768 42.864 53.448C42.288 53.096 41.872 52.76 41.616 52.44L41.232 51.912C40.592 51.112 39.328 49.416 37.44 46.824C35.552 44.2 34.528 42.792 34.368 42.6V58.776C34.368 59.512 34.336 60.072 34.272 60.456C34.24 60.808 34.096 61.208 33.84 61.656C33.36 62.52 32.112 62.952 30.096 62.952C28.144 62.952 26.928 62.52 26.448 61.656C26.192 61.208 26.032 60.792 25.968 60.408C25.936 60.024 25.92 59.448 25.92 58.68V32.04C25.92 31.304 25.936 30.76 25.968 30.408C26.032 30.024 26.192 29.592 26.448 29.112C26.928 28.28 28.176 27.864 30.192 27.864C31.056 27.864 31.792 27.976 32.4 28.2C33.04 28.392 33.456 28.6 33.648 28.824L33.936 29.112L44.832 43.416C50.272 36.216 53.904 31.464 55.728 29.16C56.272 28.296 57.552 27.864 59.568 27.864C61.616 27.864 62.864 28.296 63.312 29.16Z" fill="white"/>
</svg>